# xmcd CD database file
#
# Track frame offsets:
#	182
#	11215
#	23645
#	39007
#	52745
#	66025
#	80907
#	98697
#	109295
#	119695
#	133512
#	166462
#	191407
#	203410
#	217337
#	230722
#	248717
#	275012
#
# Disc length: 3814 seconds
#
# Revision: 0
# Processed by: cddbd v1.5.2PL0 Copyright (c) Steve Scherf et al.
# Submitted via: CDex 1.70beta2
#
DISCID=fd0ee412
DTITLE=Louis Armstrong - His Greatest Hits
DYEAR=1992
DGENRE=Blues
TTITLE0=Hello, Dolly
TTITLE1=When The Saints Go Marching In
TTITLE2=La ve en rose
TTITLE3=A Kiss To Build A Dream On
TTITLE4=Takes Two To Tango
TTITLE5=Blueberry Hill
TTITLE6=High Society
TTITLE7=Mame
TTITLE8=What A Wonderful World
TTITLE9=C'est si bon
TTITLE10=Basin Street Blues
TTITLE11=Bugle Call Rag
TTITLE12=Alexanders Rag Time Band
TTITLE13=Tiger Rag
TTITLE14=Red Sails In The Sunset
TTITLE15=Love Is Here To Stay
TTITLE16=On The Sunny Side Of The Street
TTITLE17=Uncle Sachmo's Lullaby
EXTD=YEAR: 1992
EXTT0=
EXTT1=
EXTT2=
EXTT3=
EXTT4=
EXTT5=
EXTT6=
EXTT7=
EXTT8=
EXTT9=
EXTT10=
EXTT11=
EXTT12=
EXTT13=
EXTT14=
EXTT15=
EXTT16=
EXTT17=
PLAYORDER=
